<svg version="1.1" xmlns="http://www.w3.org/2000/svg" xmlns:xlink="http://www.w3.org/1999/xlink" width="44" height="44" viewBox="0,0,44,44">
  <g transform="translate(-218,-158)">
    <g data-paper-data="{&quot;isPaintingLayer&quot;:true}" fill-rule="nonzero" stroke="none" stroke-linecap="butt" stroke-linejoin="miter" stroke-miterlimit="10" stroke-dasharray="" stroke-dashoffset="0" style="mix-blend-mode: normal">
      <path d="M239.25,202v-44h1.5v44z" fill="#f6a9cb" stroke-width="0"/>
      <path d="M218,179.25h44v1.5h-44z" fill="#f6a9cb" stroke-width="0"/>
      <path d="M220.5,180c0,-10.76955 8.73045,-19.5 19.5,-19.5c10.76955,0 19.5,8.73045 19.5,19.5c0,10.76955 -8.73045,19.5 -19.5,19.5c-10.76955,0 -19.5,-8.73045 -19.5,-19.5z" fill="#949599" stroke-width="0.5"/>
      <path d="M228,180c0,-6.62742 5.37258,-12 12,-12c6.62742,0 12,5.37258 12,12c0,6.62742 -5.37258,12 -12,12c-6.62742,0 -12,-5.37258 -12,-12z" fill="#e7e8ea" stroke-width="0.5"/>
      <path d="M239.9716,189.20236c-0.6745,-2.45091 -8.35364,-5.34236 -8.35364,-11.05091c0.01618,-2.30849 1.87145,-4.58909 4.18,-4.58909c1.42855,0 3.62624,0.51447 4.1818,4.04524z" data-paper-data="{&quot;index&quot;:null}" fill="#f6a9cb" stroke-width="0"/>
    </g>
  </g>
</svg>
