<svg version="1.1" xmlns="http://www.w3.org/2000/svg" xmlns:xlink="http://www.w3.org/1999/xlink" width="48" height="48" viewBox="0,0,48,48">
  <g transform="translate(-216,-156)">
      <path fill="#e7e8ea" fill-rule="nonzero" stroke="#3a3a3c" stroke-width="1.25" stroke-linecap="butt" stroke-linejoin="miter" stroke-miterlimit="10"
        d="M 216.625,160
        l 3.375,-3.375
        h 11
        l 2 2
        h 3.125
        v -1.5
        h 7.75
        v 1.5
        h 3.125
        l 2 -2
        h 11
        l 3.375,3.375
        v 11
        l -2 2
        v 3.125
        h 1.5
        v 7.75
        h -1.5
        v 3.125
        l 2 2
        v 11
        l -3.375,3.375
        h -11
        l -2 -2
        h -3.125
        v 1.5
        h -7.75
        v -1.5
        h -3.125
        l -2 2
        h -11
        l -3.375,-3.375
        v -11
        l 2 -2
        v -3.125
        h -1.5
        v -7.75
        h 1.5
        v -3.125
        l -2 -2
        z"
      />
    <path fill="#949599" fill-rule="nonzero" stroke-width="0"
      d="M 233.25,159.25
      h3.5
      v2.5
      h-3
      l0.5,-0.5
      v-1
      z"/>
  </g>
</svg>
