<svg version="1.1" xmlns="http://www.w3.org/2000/svg" xmlns:xlink="http://www.w3.org/1999/xlink" width="38.68944" height="38.68944" viewBox="0,0,38.68944,38.68944">
  <g transform="translate(-220.65528,-160.65528)">
    <g data-paper-data="{&quot;isPaintingLayer&quot;:true}" fill-rule="nonzero" stroke-linejoin="miter" stroke-miterlimit="10" stroke-dasharray="" stroke-dashoffset="0" style="mix-blend-mode: normal">
      <path d="M220.70946,180c0,-10.65387 8.63667,-19.29054 19.29054,-19.29054c10.65387,0 19.29054,8.63667 19.29054,19.29054c0,10.65387 -8.63667,19.29054 -19.29054,19.29054c-10.65387,0 -19.29054,-8.63667 -19.29054,-19.29054z" fill="#949599" stroke="none" stroke-width="0.5" stroke-linecap="butt"/><path d="M239.25,199.34472v-38.68944h1.5v38.68944z" fill="#98cbed" stroke="none" stroke-width="0" stroke-linecap="butt"/><path d="M220.65528,179.25h38.68944v1.5h-38.68944z" fill="#98cbed" stroke="none" stroke-width="0" stroke-linecap="butt"/><path d="M223.5,180c0,-9.1127 7.3873,-16.5 16.5,-16.5c9.1127,0 16.5,7.3873 16.5,16.5c0,9.1127 -7.3873,16.5 -16.5,16.5c-9.1127,0 -16.5,-7.3873 -16.5,-16.5z" fill="#3a3a3c" stroke="none" stroke-width="0.5" stroke-linecap="butt"/><path d="M225,180c0,-8.28427 6.71573,-15 15,-15c8.28427,0 15,6.71573 15,15c0,8.28427 -6.71573,15 -15,15c-8.28427,0 -15,-6.71573 -15,-15z" fill="#98cbed" stroke="none" stroke-width="0.5" stroke-linecap="butt"/><path d="M231,180c0,-4.97056 4.02944,-9 9,-9c4.97056,0 9,4.02944 9,9c0,4.97056 -4.02944,9 -9,9c-4.97056,0 -9,-4.02944 -9,-9z" fill="#e7e8ea" stroke="none" stroke-width="0.5" stroke-linecap="butt"/><path d="M233.63604,173.63604c3.51471,-3.51471 9.2132,-3.51471 12.72792,0c3.51471,3.51471 3.51471,9.2132 0,12.72792c-3.51471,3.51471 -9.2132,3.51471 -12.72792,0c-3.51471,-3.51471 -3.51471,-9.2132 0,-12.72792z" fill="#e7e8ea" stroke="none" stroke-width="0.5" stroke-linecap="butt"/><path d="M232.5,180c0,-4.14213 3.35787,-7.5 7.5,-7.5c4.14213,0 7.5,3.35787 7.5,7.5c0,4.14213 -3.35787,7.5 -7.5,7.5c-4.14213,0 -7.5,-3.35787 -7.5,-7.5z" fill="#3a3a3c" stroke="none" stroke-width="0.5" stroke-linecap="butt"/><path d="M235,180c0,-2.76143 2.23857,-5 5,-5c2.76143,0 5,2.23857 5,5c0,2.76143 -2.23857,5 -5,5c-2.76143,0 -5,-2.23857 -5,-5z" fill="#e7e8ea" stroke="none" stroke-width="0.5" stroke-linecap="butt"/>
      <path d="M235,175.375h5" fill="none" stroke="#000000" stroke-width="0.75" stroke-linecap="round"/></g></g></svg>
